<svg width="41" height="41" viewBox="0 0 41 41" fill="none" xmlns="http://www.w3.org/2000/svg">
<g clip-path="url(#clip0_12_795)">
<path d="M31.2155 38.8907L29.3729 35.9513L23.2746 26.3432L21.432 23.4038C21.3881 23.316 21.2565 23.2283 21.1687 23.2283H21.081C20.9932 23.2283 20.9055 23.2722 20.8616 23.316L19.1506 24.4128C19.0629 24.4567 18.9751 24.5883 18.9751 24.6761C18.9312 24.8077 18.9751 24.8954 19.019 25.0271L20.8616 27.9665L26.916 37.5307L28.7587 40.4701C28.8025 40.5579 28.9341 40.6456 29.0219 40.6456H29.1096C29.1974 40.6456 29.2851 40.6017 29.329 40.5579L31.04 39.4611C31.3033 39.3295 31.3471 39.0662 31.2155 38.8907ZM21.081 23.6231L22.7043 26.2116L20.9494 27.3084L19.3261 24.7199L21.081 23.6231ZM29.1096 40.2069L27.4864 37.6184L29.1974 36.5216L30.8207 39.1101L29.1096 40.2069ZM19.3261 12.6112L15.7286 6.90776L15.5531 6.55678L11.8678 0.765625L14.1491 7.21487L14.2808 7.56585L14.9827 9.58397L10.4639 10.3737L19.3261 22.3947L15.5969 12.6112H19.3261Z" fill="url(#paint0_linear_12_795)"/>
</g>
<defs>
<linearGradient id="paint0_linear_12_795" x1="30.876" y1="0.765625" x2="2.29087" y2="8.2084" gradientUnits="userSpaceOnUse">
<stop offset="0.421875" stop-color="#C2C2AD"/>
<stop offset="0.588542" stop-color="#81805F"/>
<stop offset="0.917708" stop-color="#81805F"/>
</linearGradient>
<clipPath id="clip0_12_795">
<rect width="40" height="40" fill="white" transform="translate(0.875977 0.705566)"/>
</clipPath>
</defs>
</svg>
