<svg width="104" height="104" viewBox="0 0 104 104" fill="none" xmlns="http://www.w3.org/2000/svg">
<g style="mix-blend-mode:color-dodge">
<path d="M0 52C0 23.2812 23.2812 0 52 0C80.7188 0 104 23.2812 104 52C104 80.7188 80.7188 104 52 104C23.2812 104 0 80.7188 0 52Z" fill="url(#paint0_linear_1565_1039)"/>
<path d="M52 49.6667C53.2833 49.6667 54.3823 49.2093 55.297 48.2947C56.2117 47.38 56.6682 46.2818 56.6667 45C56.6667 43.7167 56.2093 42.6177 55.2947 41.703C54.38 40.7883 53.2818 40.3318 52 40.3333C50.7167 40.3333 49.6177 40.7907 48.703 41.7053C47.7883 42.62 47.3318 43.7182 47.3333 45C47.3333 46.2833 47.7907 47.3823 48.7053 48.297C49.62 49.2117 50.7182 49.6682 52 49.6667ZM40.3333 73V68.3333H49.6667V61.1C47.7611 60.6722 46.0593 59.8649 44.5613 58.678C43.0633 57.4911 41.9651 56.004 41.2667 54.2167C38.35 53.8667 35.9093 52.5934 33.9447 50.397C31.98 48.2006 30.9984 45.6238 31 42.6667V40.3333C31 39.05 31.4573 37.951 32.372 37.0363C33.2867 36.1217 34.3849 35.6651 35.6667 35.6667H40.3333V31H63.6667V35.6667H68.3333C69.6167 35.6667 70.7157 36.124 71.6303 37.0387C72.545 37.9533 73.0015 39.0516 73 40.3333V42.6667C73 45.6222 72.0177 48.199 70.053 50.397C68.0883 52.595 65.6484 53.8682 62.7333 54.2167C62.0333 56.0056 60.9343 57.4934 59.4363 58.6803C57.9383 59.8672 56.2373 60.6738 54.3333 61.1V68.3333H63.6667V73H40.3333ZM40.3333 49.2V40.3333H35.6667V42.6667C35.6667 44.1444 36.0944 45.4768 36.95 46.6637C37.8056 47.8506 38.9333 48.696 40.3333 49.2ZM63.6667 49.2C65.0667 48.6944 66.1944 47.8482 67.05 46.6613C67.9056 45.4744 68.3333 44.1429 68.3333 42.6667V40.3333H63.6667V49.2Z" fill="url(#paint1_linear_1565_1039)"/>
</g>
<defs>
<linearGradient id="paint0_linear_1565_1039" x1="101.946" y1="1.01844e-06" x2="-20.1405" y2="60.8782" gradientUnits="userSpaceOnUse">
<stop stop-color="#66888F"/>
<stop offset="1" stop-color="#1D2729"/>
</linearGradient>
<linearGradient id="paint1_linear_1565_1039" x1="72.1704" y1="31" x2="22.8663" y2="55.5854" gradientUnits="userSpaceOnUse">
<stop stop-color="#DFE2E1"/>
<stop offset="1" stop-color="#A9B1AF"/>
</linearGradient>
</defs>
</svg>
