<svg width="104" height="104" viewBox="0 0 104 104" fill="none" xmlns="http://www.w3.org/2000/svg">
<g style="mix-blend-mode:color-dodge">
<path d="M0 52C0 23.2812 23.2812 0 52 0C80.7188 0 104 23.2812 104 52C104 80.7188 80.7188 104 52 104C23.2812 104 0 80.7188 0 52Z" fill="url(#paint0_linear_1565_928)"/>
<path d="M65.2063 50.1333C64.6696 49.4333 64.0163 48.8267 63.4096 48.22C61.8463 46.82 60.073 45.8167 58.5796 44.3467C55.103 40.94 54.333 35.3167 56.5496 31C54.333 31.5367 52.3963 32.75 50.7396 34.08C44.6963 38.9333 42.3163 47.4967 45.163 54.8467C45.2563 55.08 45.3496 55.3133 45.3496 55.6167C45.3496 56.13 44.9996 56.5967 44.533 56.7833C43.9963 57.0167 43.4363 56.8767 42.993 56.5033C42.8597 56.3932 42.7489 56.2585 42.6663 56.1067C40.0296 52.77 39.6096 47.9867 41.383 44.16C37.4863 47.3333 35.363 52.7 35.6663 57.7633C35.8063 58.93 35.9463 60.0967 36.343 61.2633C36.6696 62.6633 37.2996 64.0633 37.9996 65.3C40.5196 69.3367 44.883 72.23 49.573 72.8133C54.5663 73.4433 59.9096 72.5333 63.7363 69.08C68.0063 65.2067 69.4996 59 67.3063 53.68L67.003 53.0733C66.513 52 65.2063 50.1333 65.2063 50.1333ZM57.833 64.8333C57.1796 65.3933 56.1063 66 55.2663 66.2333C52.653 67.1667 50.0396 65.86 48.4996 64.32C51.2763 63.6667 52.933 61.6133 53.423 59.5367C53.8196 57.67 53.073 56.13 52.7696 54.3333C52.4896 52.6067 52.5363 51.1367 53.1663 49.5267C53.6096 50.4133 54.0763 51.3 54.6363 52C56.433 54.3333 59.2563 55.36 59.863 58.5333C59.9563 58.86 60.003 59.1867 60.003 59.5367C60.073 61.45 59.233 63.55 57.833 64.8333Z" fill="url(#paint1_linear_1565_928)"/>
</g>
<defs>
<linearGradient id="paint0_linear_1565_928" x1="101.946" y1="1.01844e-06" x2="-20.1405" y2="60.8782" gradientUnits="userSpaceOnUse">
<stop stop-color="#416C76"/>
<stop offset="1" stop-color="#1D2F2F"/>
</linearGradient>
<linearGradient id="paint1_linear_1565_928" x1="67.665" y1="31" x2="26.0376" y2="47.1481" gradientUnits="userSpaceOnUse">
<stop stop-color="#DFE2E1"/>
<stop offset="1" stop-color="#A9B1AF"/>
</linearGradient>
</defs>
</svg>
