<svg width="105" height="104" viewBox="0 0 105 104" fill="none" xmlns="http://www.w3.org/2000/svg">
<g style="mix-blend-mode:color-dodge">
<path d="M0.333008 52C0.333008 23.2812 23.6142 0 52.333 0C81.0518 0 104.333 23.2812 104.333 52C104.333 80.7188 81.0518 104 52.333 104C23.6142 104 0.333008 80.7188 0.333008 52Z" fill="url(#paint0_linear_1565_730)"/>
<path d="M41.8327 37.0667L35.9993 40.3333L39.266 34.5L35.9993 28.6667L41.8327 31.9333L47.666 28.6667L44.3993 34.5L47.666 40.3333L41.8327 37.0667ZM69.8327 59.9333L75.666 56.6667L72.3993 62.5L75.666 68.3333L69.8327 65.0667L63.9993 68.3333L67.266 62.5L63.9993 56.6667L69.8327 59.9333ZM75.666 28.6667L72.3993 34.5L75.666 40.3333L69.8327 37.0667L63.9993 40.3333L67.266 34.5L63.9993 28.6667L69.8327 31.9333L75.666 28.6667ZM55.4593 53.82L61.1527 48.1267L56.206 43.18L50.5127 48.8733L55.4593 53.82ZM57.8627 41.01L63.3227 46.47C64.2327 47.3333 64.2327 48.85 63.3227 49.76L36.0927 76.99C35.1827 77.9 33.666 77.9 32.8027 76.99L27.3427 71.53C26.4327 70.6667 26.4327 69.15 27.3427 68.24L54.5727 41.01C55.4827 40.1 56.9993 40.1 57.8627 41.01Z" fill="url(#paint1_linear_1565_730)"/>
</g>
<defs>
<linearGradient id="paint0_linear_1565_730" x1="102.279" y1="1.01844e-06" x2="-19.8075" y2="60.8782" gradientUnits="userSpaceOnUse">
<stop stop-color="#416C76"/>
<stop offset="1" stop-color="#1D2F2F"/>
</linearGradient>
<linearGradient id="paint1_linear_1565_730" x1="74.698" y1="28.6667" x2="17.1698" y2="57.3531" gradientUnits="userSpaceOnUse">
<stop stop-color="#DFE2E1"/>
<stop offset="1" stop-color="#A9B1AF"/>
</linearGradient>
</defs>
</svg>
