<svg width="105" height="104" viewBox="0 0 105 104" fill="none" xmlns="http://www.w3.org/2000/svg">
<g style="mix-blend-mode:color-dodge">
<path d="M0.666016 52C0.666016 23.2812 23.9472 0 52.666 0C81.3848 0 104.666 23.2812 104.666 52C104.666 80.7188 81.3848 104 52.666 104C23.9472 104 0.666016 80.7188 0.666016 52Z" fill="url(#paint0_linear_1565_1013)"/>
<path d="M73.6657 42.6667C70.2824 42.6667 68.3924 46.0267 69.1624 48.5233L60.879 56.83C60.179 56.62 59.1524 56.62 58.4524 56.83L52.5024 50.88C53.2957 48.3833 51.4057 45 47.999 45C44.6157 45 42.7024 48.36 43.4957 50.88L32.8557 61.4967C30.359 60.7267 26.999 62.6167 26.999 66C26.999 68.5667 29.099 70.6667 31.6657 70.6667C35.049 70.6667 36.939 67.3067 36.169 64.81L46.7857 54.17C47.4857 54.38 48.5124 54.38 49.2124 54.17L55.1624 60.12C54.369 62.6167 56.259 66 59.6657 66C63.049 66 64.9624 62.64 64.169 60.12L72.4757 51.8367C74.9723 52.6067 78.3323 50.7167 78.3323 47.3333C78.3323 44.7667 76.2324 42.6667 73.6657 42.6667Z" fill="url(#paint1_linear_1565_1013)"/>
<path d="M59.6657 45L61.859 40.17L66.6657 38L61.859 35.83L59.6657 31L57.519 35.83L52.6657 38L57.519 40.17L59.6657 45ZM32.8324 49.6667L33.999 45L38.6657 43.8333L33.999 42.6667L32.8324 38L31.6657 42.6667L26.999 43.8333L31.6657 45L32.8324 49.6667Z" fill="url(#paint2_linear_1565_1013)"/>
</g>
<defs>
<linearGradient id="paint0_linear_1565_1013" x1="102.612" y1="1.01844e-06" x2="-19.4745" y2="60.8782" gradientUnits="userSpaceOnUse">
<stop stop-color="#416C76"/>
<stop offset="1" stop-color="#1D2F2F"/>
</linearGradient>
<linearGradient id="paint1_linear_1565_1013" x1="77.3184" y1="42.6667" x2="36.3299" y2="80.1379" gradientUnits="userSpaceOnUse">
<stop stop-color="#DFE2E1"/>
<stop offset="1" stop-color="#A9B1AF"/>
</linearGradient>
<linearGradient id="paint2_linear_1565_1013" x1="65.8821" y1="31" x2="38.4924" y2="60.023" gradientUnits="userSpaceOnUse">
<stop stop-color="#DFE2E1"/>
<stop offset="1" stop-color="#A9B1AF"/>
</linearGradient>
</defs>
</svg>
