<svg width="256" height="64" viewBox="0 0 256 64" fill="none" xmlns="http://www.w3.org/2000/svg">
<g clip-path="url(#clip0_919_5475)">
<path d="M33.2401 61.131L30.2885 56.4226L20.5203 41.0324L17.5687 36.3239C17.4985 36.1834 17.2877 36.0428 17.1471 36.0428H17.0065C16.866 36.0428 16.7255 36.1131 16.6552 36.1834L13.9145 37.9403C13.7739 38.0105 13.6334 38.2214 13.6334 38.3619C13.5631 38.5727 13.6333 38.7133 13.7036 38.9241L16.6552 43.6325L26.3531 58.9525L29.3047 63.6609C29.375 63.8015 29.5858 63.942 29.7263 63.942H29.8669C30.0074 63.942 30.148 63.8717 30.2183 63.8015L32.959 62.0446C33.3806 61.8338 33.4509 61.4121 33.2401 61.131ZM17.0065 36.6753L19.6067 40.8215L16.7957 42.5784L14.1955 38.4322L17.0065 36.6753ZM29.8669 63.2393L27.2667 59.093L30.0074 57.3362L32.6076 61.4824L29.8669 63.2393ZM14.1955 19.0363L8.433 9.90052L8.1519 9.33832L2.2488 0.0620117L5.9031 10.3924L6.11392 10.9546L7.23833 14.1873L0 15.4522L14.1955 34.7076L8.22217 19.0363H14.1955Z" fill="url(#paint0_linear_919_5475)"/>
<path d="M43.3895 18.0833H48.5691L52.5898 30.7366L58.9756 18.0833H64.0133L61.9793 39.6531H58.3133L59.8034 23.4284L53.1101 37.3353H50.7686L46.5587 22.8844L44.9977 39.6531H41.3555L43.3895 18.0833ZM73.4737 30.2163C74.4513 30.2163 75.6339 30.4134 77.0214 30.8076L77.187 29.2939C77.2027 29.1362 77.2106 28.9864 77.2106 28.8445V28.4898C77.2106 27.6541 77.0293 27.0392 76.6666 26.645C76.304 26.235 75.7048 26.03 74.8691 26.03C74.0335 26.03 73.3476 26.235 72.8115 26.645C72.2912 27.0549 71.9837 27.6147 71.8891 28.3242H67.9157C68.1207 26.4952 68.846 25.1628 70.0916 24.3272C71.3372 23.5073 72.9297 23.0973 74.8691 23.0973C78.8583 23.0973 80.8529 24.8948 80.8529 28.4898V28.9155C80.8529 29.0732 80.845 29.2387 80.8292 29.4122L79.8595 39.6531H76.7139C76.6824 39.2904 76.6666 38.9357 76.6666 38.5888C76.6666 38.2419 76.6509 37.8793 76.6193 37.5008C75.4683 39.2353 73.9704 40.1025 72.1256 40.1025C70.3597 40.1025 69.0037 39.6531 68.0576 38.7544C67.1746 37.9187 66.7331 36.8228 66.7331 35.4668C66.7331 33.7009 67.4111 32.3607 68.7671 31.4461C69.9497 30.6262 71.5186 30.2163 73.4737 30.2163ZM76.7849 33.3855C75.7285 33.0387 74.8455 32.8652 74.136 32.8652C73.4264 32.8652 72.8903 32.9046 72.5277 32.9835C72.165 33.0781 71.8418 33.2121 71.558 33.3855C70.9115 33.7797 70.5883 34.3001 70.5883 34.9465C70.5883 35.593 70.8011 36.0975 71.2269 36.4602C71.6526 36.8386 72.1966 37.0278 72.8588 37.0278C73.521 37.0278 74.0492 36.9332 74.4434 36.744C74.8534 36.5548 75.2239 36.2946 75.555 35.9635C76.2488 35.2855 76.6587 34.4262 76.7849 33.3855ZM91.7088 23.0973C93.5693 23.0973 94.9647 23.5546 95.895 24.4691C96.8253 25.3836 97.2352 26.5346 97.1249 27.9221H93.7191C93.7191 27.4176 93.5299 27.0076 93.1515 26.6923C92.7731 26.3927 92.2054 26.2429 91.4486 26.2429C90.7075 26.2429 90.1162 26.4006 89.6748 26.7159C89.2333 27.0313 88.9889 27.4097 88.9416 27.8512C88.847 28.608 89.3436 29.1599 90.4316 29.5068L93.8137 30.9731C94.8701 31.3988 95.6743 31.9349 96.2261 32.5814C96.778 33.2279 97.0145 33.9689 96.9357 34.8046C96.8568 35.6561 96.644 36.3814 96.2971 36.9805C95.9344 37.5954 95.4614 38.1315 94.878 38.5888C93.5851 39.5979 91.9847 40.1025 90.0768 40.1025C88.1532 40.1025 86.6395 39.6373 85.5358 38.7071C84.4321 37.761 83.9591 36.4287 84.1167 34.71H87.4752C87.4121 35.4826 87.6171 36.0502 88.0901 36.4129C88.5632 36.7598 89.2254 36.9332 90.0768 36.9332C90.9125 36.9332 91.5747 36.7598 92.0635 36.4129C92.5365 36.0502 92.8046 35.6324 92.8677 35.1594C92.915 34.6864 92.8125 34.3316 92.5602 34.0951C92.2921 33.8428 91.8585 33.6063 91.2594 33.3855L88.1847 32.1084C85.93 31.1781 84.913 29.696 85.1337 27.662C85.2599 26.2744 85.9142 25.1707 87.0968 24.3508C88.3109 23.5151 89.8482 23.0973 91.7088 23.0973ZM108.643 36.4129L108.903 39.251C107.563 39.8187 106.506 40.1025 105.734 40.1025C104.961 40.1025 104.299 40.0079 103.747 39.8187C103.195 39.6137 102.722 39.3141 102.328 38.9199C101.461 38.0369 101.114 36.7755 101.287 35.1357L102.115 26.1956H100.129L100.389 23.523H102.375L102.777 19.3131H106.42L106.018 23.523H109.896L109.636 26.1956H105.734L104.93 35.0175C104.804 36.2946 105.3 36.9332 106.42 36.9332C107.003 36.9332 107.744 36.7598 108.643 36.4129ZM124.702 32.6051H115.36C115.344 32.7154 115.336 32.8258 115.336 32.9362C115.336 33.0465 115.336 33.1569 115.336 33.2673C115.336 34.3395 115.573 35.2067 116.046 35.8689C116.519 36.5311 117.149 36.8623 117.938 36.8623C119.562 36.8623 120.547 36.1921 120.894 34.8519H124.56C124.213 36.3971 123.425 37.6506 122.195 38.6124C120.949 39.6058 119.522 40.1025 117.914 40.1025C116.164 40.1025 114.721 39.4402 113.586 38.1158C112.404 36.7755 111.812 34.9938 111.812 32.7706C111.812 30.2478 112.49 28.0404 113.846 26.1483C115.281 24.1143 117.165 23.0973 119.499 23.0973C121.328 23.0973 122.731 23.7595 123.709 25.084C124.607 26.2666 125.057 27.8118 125.057 29.7196C125.057 30.6184 124.939 31.5802 124.702 32.6051ZM119.168 26.3139C118.237 26.3139 117.465 26.6607 116.85 27.3545C116.235 28.064 115.825 28.9628 115.62 30.0507H121.698C121.714 29.9404 121.722 29.83 121.722 29.7196C121.722 29.6092 121.722 29.42 121.722 29.152C121.722 28.8839 121.683 28.5686 121.604 28.2059C121.525 27.8433 121.391 27.5201 121.202 27.2362C120.776 26.6213 120.098 26.3139 119.168 26.3139ZM138.633 23.4521L138.207 27.4964C137.765 27.386 137.237 27.3309 136.622 27.3309C134.289 27.3309 132.956 29.0889 132.625 32.6051L131.963 39.6531H128.321L129.834 23.4994H133.477L133.169 26.6923C133.705 25.5097 134.344 24.6346 135.085 24.067C135.826 23.4994 136.607 23.2156 137.426 23.2156C137.821 23.2156 138.223 23.2944 138.633 23.4521ZM150.34 17.6575C153.02 17.6575 155.062 18.5957 156.466 20.472C157.932 22.4114 158.492 25.2023 158.145 28.8445C157.814 32.5183 156.718 35.3486 154.857 37.3353C153.139 39.1801 150.923 40.1025 148.211 40.1025C145.547 40.1025 143.505 39.1564 142.086 37.2643C140.651 35.3249 140.107 32.5183 140.454 28.8445C140.785 25.1865 141.873 22.372 143.718 20.4011C145.405 18.572 147.612 17.6575 150.34 17.6575ZM154.361 28.8918C154.613 26.4636 154.337 24.5873 153.533 23.2629C152.729 21.9384 151.554 21.2762 150.009 21.2762C148.464 21.2762 147.163 21.9463 146.106 23.2865C145.066 24.611 144.427 26.4873 144.191 28.9155C143.954 31.3437 144.238 33.2121 145.042 34.5208C145.83 35.8137 147.005 36.4602 148.566 36.4602C150.111 36.4602 151.404 35.8058 152.445 34.4971C153.486 33.1884 154.124 31.32 154.361 28.8918ZM171.413 17.0426L170.42 20.1409C169.868 19.9517 169.379 19.8571 168.953 19.8571C168.528 19.8571 168.133 19.9911 167.771 20.2592C167.408 20.543 167.187 21.0318 167.109 21.7255L166.943 23.523H169.592L169.332 26.2429H166.683L165.453 39.6531H161.811L163.041 26.2429H160.936L161.196 23.523H163.301L163.514 21.7019C163.671 20.0463 164.231 18.7691 165.193 17.8704C166.029 17.0663 167.101 16.6642 168.409 16.6642C169.355 16.6642 170.357 16.7903 171.413 17.0426ZM174.228 18.0833H179.431L183.452 30.7366L189.837 18.0833H194.875L192.841 39.6531H189.175L190.665 23.4284L183.972 37.3353H181.63L177.421 22.8844L175.86 39.6531H172.217L174.228 18.0833ZM204.335 30.2163C205.313 30.2163 206.496 30.4134 207.883 30.8076L208.049 29.2939C208.064 29.1362 208.072 28.9864 208.072 28.8445V28.4898C208.072 27.6541 207.891 27.0392 207.528 26.645C207.166 26.235 206.567 26.03 205.731 26.03C204.895 26.03 204.209 26.235 203.673 26.645C203.137 27.0549 202.83 27.6147 202.751 28.3242H198.777C198.967 26.4952 199.684 25.1628 200.93 24.3272C202.191 23.5073 203.792 23.0973 205.731 23.0973C209.72 23.0973 211.715 24.8948 211.715 28.4898V28.9155C211.715 29.0732 211.707 29.2387 211.691 29.4122L210.721 39.6531H207.576C207.528 39.2904 207.505 38.9357 207.505 38.5888C207.505 38.2419 207.497 37.8793 207.481 37.5008C206.33 39.2353 204.832 40.1025 202.987 40.1025C201.221 40.1025 199.858 39.6531 198.896 38.7544C198.013 37.9187 197.571 36.8228 197.571 35.4668C197.571 33.7009 198.257 32.3607 199.629 31.4461C200.796 30.6262 202.365 30.2163 204.335 30.2163ZM207.647 33.3855C206.59 33.0387 205.707 32.8652 204.998 32.8652C204.288 32.8652 203.752 32.9046 203.389 32.9835C203.027 33.0781 202.704 33.2121 202.42 33.3855C201.773 33.7797 201.45 34.3001 201.45 34.9465C201.45 35.593 201.663 36.0975 202.089 36.4602C202.499 36.8386 203.035 37.0278 203.697 37.0278C204.359 37.0278 204.895 36.9332 205.305 36.744C205.715 36.5548 206.086 36.2946 206.417 35.9635C207.111 35.2855 207.521 34.4262 207.647 33.3855ZM217.675 33.0308C216.744 32.1005 216.279 30.9258 216.279 29.5068C216.279 27.5989 216.997 26.0379 218.432 24.8238C219.788 23.6728 221.356 23.0973 223.138 23.0973C224.4 23.0973 225.551 23.4048 226.591 24.0197C226.859 22.7583 227.451 21.7334 228.365 20.945C229.248 20.1724 230.265 19.7861 231.416 19.7861L230.896 23.6649C229.193 23.6649 228.255 24.272 228.081 25.4861C228.649 26.3375 228.933 27.2599 228.933 28.2532C228.933 29.2466 228.736 30.1375 228.341 30.9258C227.947 31.7142 227.427 32.3843 226.78 32.9362C225.409 34.0714 223.832 34.6391 222.05 34.6391C221.151 34.6391 220.3 34.4893 219.496 34.1897C218.613 34.5366 218.171 35.0963 218.171 35.8689C218.171 36.7519 218.865 37.1934 220.253 37.1934H225.054C228.176 37.1934 229.737 38.3286 229.737 40.5991C229.737 42.775 228.728 44.5883 226.709 46.0389C224.928 47.3476 222.91 48.002 220.655 48.002C218.321 48.002 216.461 47.4895 215.073 46.4646C213.812 45.5344 213.181 44.336 213.181 42.8697C213.181 41.2929 213.883 40.1498 215.286 39.4402C215.696 39.251 216.106 39.1249 216.516 39.0618C215.554 38.3208 215.073 37.4614 215.073 36.4838C215.073 35.5063 215.341 34.7337 215.877 34.166C216.413 33.5984 217.012 33.22 217.675 33.0308ZM219.874 40.0552C219.023 40.0552 218.298 40.268 217.698 40.6937C217.083 41.1195 216.776 41.7029 216.776 42.4439C216.776 43.185 217.147 43.7526 217.888 44.1468C218.613 44.541 219.638 44.7381 220.962 44.7381C222.224 44.7381 223.351 44.4306 224.344 43.8157C225.511 43.1377 226.095 42.2468 226.095 41.1431C226.095 40.812 225.984 40.544 225.763 40.339C225.543 40.1498 225.219 40.0552 224.794 40.0552H219.874ZM225.29 28.4898C225.29 26.7711 224.439 25.9118 222.736 25.9118C221.837 25.9118 221.136 26.2271 220.631 26.8578C220.142 27.5043 219.898 28.2611 219.898 29.1283C219.898 30.9101 220.726 31.8009 222.381 31.8009C223.359 31.8009 224.084 31.4698 224.557 30.8076C225.046 30.1453 225.29 29.3727 225.29 28.4898ZM233.568 39.6531L235.106 23.4994H238.701L237.187 39.6531H233.568ZM235.106 18.3671C235.184 17.6575 235.445 17.0899 235.886 16.6642C236.312 16.2227 236.879 16.002 237.589 16.002C238.283 16.002 238.803 16.2227 239.15 16.6642C239.497 17.0899 239.639 17.6654 239.576 18.3907C239.528 19.1003 239.284 19.66 238.843 20.07C238.401 20.4957 237.826 20.7085 237.116 20.7085C236.438 20.7085 235.918 20.4957 235.555 20.07C235.208 19.66 235.058 19.0924 235.106 18.3671ZM244.471 26.101C245.102 25.2023 245.898 24.4769 246.86 23.9251C247.822 23.3732 248.855 23.0973 249.959 23.0973C251.062 23.0973 251.961 23.2707 252.655 23.6176C253.349 23.9803 253.932 24.4454 254.405 25.013C255.304 26.1325 255.753 27.5043 255.753 29.1283H252.04C251.961 28.4661 251.74 27.8985 251.378 27.4255C251.031 26.9682 250.503 26.7396 249.793 26.7396C248.516 26.7396 247.546 27.4333 246.884 28.8209C246.379 29.8773 246.127 31.0835 246.127 32.4395C246.127 33.7955 246.387 34.8046 246.908 35.4668C247.444 36.1291 248.122 36.4602 248.942 36.4602C249.777 36.4602 250.416 36.2237 250.857 35.7507C251.299 35.2776 251.567 34.6548 251.661 33.8822H255.304C255.114 35.6955 254.452 37.154 253.317 38.2577C252.056 39.4875 250.471 40.1025 248.563 40.1025C246.797 40.1025 245.354 39.4402 244.235 38.1158C243.037 36.7125 242.437 34.915 242.437 32.7233C242.437 30.169 243.115 27.9616 244.471 26.101Z" fill="url(#paint1_linear_919_5475)"/>
</g>
<defs>
<linearGradient id="paint0_linear_919_5475" x1="32.6963" y1="0.0620123" x2="-13.0916" y2="11.9839" gradientUnits="userSpaceOnUse">
<stop offset="0.421875" stop-color="#C2C2AD"/>
<stop offset="0.588542" stop-color="#81805F"/>
<stop offset="0.917708" stop-color="#81805F"/>
</linearGradient>
<linearGradient id="paint1_linear_919_5475" x1="251.518" y1="16.002" x2="225.678" y2="102.333" gradientUnits="userSpaceOnUse">
<stop stop-color="#DFE2E1"/>
<stop offset="1" stop-color="#A9B1AF"/>
</linearGradient>
<clipPath id="clip0_919_5475">
<rect width="255.753" height="63.88" fill="white" transform="translate(0 0.0620117)"/>
</clipPath>
</defs>
</svg>
