<svg width="226" height="57" viewBox="0 0 226 57" fill="none" xmlns="http://www.w3.org/2000/svg">
<g clip-path="url(#clip0_4_347)">
<path d="M29.5665 54.3665L26.9844 50.2475L18.439 36.7837L15.8569 32.6647C15.7954 32.5417 15.611 32.4188 15.488 32.4188H15.365C15.2421 32.4188 15.1191 32.4802 15.0577 32.5417L12.66 34.0787C12.537 34.1402 12.4141 34.3246 12.4141 34.4475C12.3526 34.632 12.4141 34.7549 12.4756 34.9394L15.0577 39.0584L23.5417 52.4607L26.1237 56.5797C26.1852 56.7027 26.3697 56.8256 26.4926 56.8256H26.6156C26.7385 56.8256 26.8615 56.7642 26.923 56.7027L29.3206 55.1657C29.6895 54.9813 29.751 54.6124 29.5665 54.3665ZM15.365 32.9721L17.6397 36.5993L15.1806 38.1362L12.9059 34.509L15.365 32.9721ZM26.6156 56.2109L24.3409 52.5836L26.7385 51.0467L29.0132 54.6739L26.6156 56.2109ZM12.9059 17.541L7.8647 9.54885L7.61878 9.05703L2.45461 0.941895L5.65148 9.9792L5.83591 10.471L6.81957 13.299L0.487305 14.4056L12.9059 31.2507L7.68026 17.541H12.9059Z" fill="url(#paint0_linear_4_347)"/>
<path d="M39.4467 16.7049H43.9789L47.497 27.7766L53.0846 16.7049H57.4926L55.7128 35.5785H52.5051L53.8089 21.3819L47.9523 33.5505H45.9035L42.2198 20.906L40.854 35.5785H37.667L39.4467 16.7049ZM65.7705 27.3213C66.6258 27.3213 67.6606 27.4938 68.8747 27.8387L69.0195 26.5142C69.0333 26.3763 69.0402 26.2452 69.0402 26.121V25.8106C69.0402 25.0794 68.8816 24.5413 68.5643 24.1964C68.2469 23.8377 67.7227 23.6584 66.9915 23.6584C66.2602 23.6584 65.6601 23.8377 65.191 24.1964C64.7357 24.5551 64.4667 25.0449 64.3839 25.6658H60.9072C61.0866 24.0654 61.7212 22.8996 62.8111 22.1683C63.901 21.4509 65.2945 21.0922 66.9915 21.0922C70.482 21.0922 72.2272 22.665 72.2272 25.8106V26.1831C72.2272 26.3211 72.2203 26.466 72.2065 26.6177L71.358 35.5785H68.6056C68.5781 35.2612 68.5643 34.9508 68.5643 34.6473C68.5643 34.3438 68.5505 34.0264 68.5229 33.6953C67.5157 35.2129 66.2051 35.9717 64.5909 35.9717C63.0457 35.9717 61.8592 35.5785 61.0314 34.7921C60.2588 34.0609 59.8725 33.1021 59.8725 31.9156C59.8725 30.3704 60.4657 29.1977 61.6522 28.3975C62.6869 27.68 64.0597 27.3213 65.7705 27.3213ZM68.6677 30.0944C67.7434 29.7909 66.9708 29.6391 66.3499 29.6391C65.7291 29.6391 65.26 29.6736 64.9427 29.7426C64.6254 29.8254 64.3425 29.9427 64.0942 30.0944C63.5285 30.4393 63.2457 30.8946 63.2457 31.4603C63.2457 32.0259 63.432 32.4674 63.8045 32.7847C64.177 33.1159 64.6529 33.2814 65.2324 33.2814C65.8119 33.2814 66.274 33.1986 66.6189 33.0331C66.9777 32.8675 67.3019 32.6399 67.5916 32.3502C68.1987 31.7569 68.5574 31.005 68.6677 30.0944ZM81.7261 21.0922C83.3541 21.0922 84.5751 21.4923 85.3891 22.2925C86.2031 23.0927 86.5618 24.0999 86.4652 25.3139H83.4852C83.4852 24.8725 83.3196 24.5137 82.9885 24.2378C82.6574 23.9757 82.1607 23.8446 81.4985 23.8446C80.85 23.8446 80.3327 23.9826 79.9464 24.2585C79.5601 24.5344 79.3462 24.8656 79.3048 25.2519C79.2221 25.9141 79.6566 26.397 80.6086 26.7005L83.568 27.9836C84.4923 28.3561 85.1959 28.8252 85.6788 29.3908C86.1617 29.9565 86.3686 30.6049 86.2997 31.3361C86.2307 32.0811 86.0444 32.7158 85.7409 33.24C85.4236 33.7781 85.0097 34.2472 84.4992 34.6473C83.3679 35.5303 81.9676 35.9717 80.2982 35.9717C78.615 35.9717 77.2905 35.5647 76.3248 34.7507C75.359 33.923 74.9451 32.7572 75.0831 31.2533H78.0218C77.9666 31.9294 78.1459 32.426 78.5598 32.7434C78.9737 33.0469 79.5532 33.1986 80.2982 33.1986C81.0294 33.1986 81.6089 33.0469 82.0365 32.7434C82.4504 32.426 82.685 32.0604 82.7402 31.6465C82.7816 31.2326 82.6919 30.9222 82.4711 30.7153C82.2366 30.4945 81.8572 30.2876 81.3329 30.0944L78.6426 28.9769C76.6697 28.1629 75.7798 26.8661 75.973 25.0863C76.0834 23.8722 76.6559 22.9065 77.6906 22.189C78.753 21.4578 80.0981 21.0922 81.7261 21.0922ZM96.5436 32.7434L96.7712 35.2267C95.5985 35.7234 94.6741 35.9717 93.9981 35.9717C93.3221 35.9717 92.7426 35.889 92.2598 35.7234C91.7769 35.5441 91.363 35.2819 91.0181 34.937C90.2593 34.1644 89.9557 33.0607 90.1075 31.6258L90.8318 23.8032H89.0935L89.3211 21.4647H91.0595L91.4113 17.7811H94.5983L94.2464 21.4647H97.6404L97.4127 23.8032H93.9981L93.2945 31.5224C93.1841 32.6399 93.6187 33.1986 94.5983 33.1986C95.1087 33.1986 95.7572 33.0469 96.5436 32.7434ZM110.595 29.4115H102.421C102.407 29.5081 102.4 29.6047 102.4 29.7012C102.4 29.7978 102.4 29.8944 102.4 29.991C102.4 30.9291 102.607 31.6879 103.021 32.2674C103.435 32.8468 103.987 33.1366 104.677 33.1366C106.098 33.1366 106.96 32.5502 107.263 31.3775H110.471C110.168 32.7296 109.478 33.8264 108.402 34.668C107.312 35.5371 106.063 35.9717 104.656 35.9717C103.124 35.9717 101.862 35.3923 100.869 34.2334C99.834 33.0607 99.3167 31.5017 99.3167 29.5564C99.3167 27.3489 99.9099 25.4174 101.096 23.7618C102.352 21.9821 104.001 21.0922 106.042 21.0922C107.643 21.0922 108.871 21.6717 109.726 22.8306C110.513 23.8653 110.906 25.2174 110.906 26.8867C110.906 27.6731 110.802 28.5147 110.595 29.4115ZM105.753 23.9067C104.939 23.9067 104.263 24.2102 103.725 24.8173C103.187 25.4381 102.828 26.2245 102.649 27.1765H107.967C107.981 27.0799 107.988 26.9833 107.988 26.8867C107.988 26.7902 107.988 26.6246 107.988 26.3901C107.988 26.1555 107.953 25.8796 107.884 25.5623C107.815 25.245 107.698 24.9621 107.532 24.7138C107.16 24.1757 106.567 23.9067 105.753 23.9067ZM122.785 21.4026L122.412 24.9414C122.026 24.8449 121.564 24.7966 121.025 24.7966C118.984 24.7966 117.818 26.3349 117.528 29.4115L116.949 35.5785H113.762L115.086 21.444H118.273L118.004 24.2378C118.473 23.2031 119.032 22.4374 119.68 21.9407C120.329 21.444 121.012 21.1957 121.729 21.1957C122.074 21.1957 122.426 21.2647 122.785 21.4026ZM133.028 16.3324C135.374 16.3324 137.16 17.1533 138.388 18.7951C139.671 20.4921 140.161 22.934 139.858 26.121C139.568 29.3356 138.609 31.8121 136.981 33.5505C135.477 35.1646 133.539 35.9717 131.166 35.9717C128.834 35.9717 127.048 35.144 125.806 33.4884C124.55 31.7914 124.074 29.3356 124.378 26.121C124.668 22.9203 125.62 20.4576 127.234 18.733C128.71 17.1326 130.642 16.3324 133.028 16.3324ZM136.547 26.1624C136.767 24.0378 136.526 22.396 135.822 21.2371C135.119 20.0782 134.091 19.4987 132.739 19.4987C131.387 19.4987 130.248 20.0851 129.324 21.2578C128.413 22.4167 127.855 24.0585 127.648 26.1831C127.441 28.3078 127.689 29.9427 128.393 31.0878C129.083 32.2191 130.11 32.7847 131.476 32.7847C132.828 32.7847 133.96 32.2122 134.87 31.0671C135.781 29.922 136.34 28.2871 136.547 26.1624ZM151.467 15.7944L150.598 18.5054C150.115 18.3398 149.688 18.257 149.315 18.257C148.943 18.257 148.598 18.3743 148.28 18.6088C147.963 18.8572 147.77 19.2849 147.701 19.8919L147.556 21.4647H149.874L149.646 23.8446H147.328L146.252 35.5785H143.065L144.141 23.8446H142.3L142.527 21.4647H144.369L144.555 19.8712C144.693 18.4226 145.183 17.3051 146.025 16.5187C146.756 15.8151 147.694 15.4632 148.839 15.4632C149.667 15.4632 150.543 15.5736 151.467 15.7944ZM153.93 16.7049H158.483L162.001 27.7766L167.589 16.7049H171.997L170.217 35.5785H167.009L168.313 21.3819L162.456 33.5505H160.408L156.724 20.906L155.358 35.5785H152.171L153.93 16.7049ZM180.275 27.3213C181.13 27.3213 182.165 27.4938 183.379 27.8387L183.524 26.5142C183.537 26.3763 183.544 26.2452 183.544 26.121V25.8106C183.544 25.0794 183.386 24.5413 183.068 24.1964C182.751 23.8377 182.227 23.6584 181.496 23.6584C180.764 23.6584 180.164 23.8377 179.695 24.1964C179.226 24.5551 178.957 25.0449 178.888 25.6658H175.411C175.577 24.0654 176.205 22.8996 177.294 22.1683C178.398 21.4509 179.799 21.0922 181.496 21.0922C184.986 21.0922 186.731 22.665 186.731 25.8106V26.1831C186.731 26.3211 186.724 26.466 186.711 26.6177L185.862 35.5785H183.11C183.068 35.2612 183.048 34.9508 183.048 34.6473C183.048 34.3438 183.041 34.0264 183.027 33.6953C182.02 35.2129 180.709 35.9717 179.095 35.9717C177.55 35.9717 176.356 35.5785 175.515 34.7921C174.742 34.0609 174.356 33.1021 174.356 31.9156C174.356 30.3704 174.956 29.1977 176.156 28.3975C177.177 27.68 178.55 27.3213 180.275 27.3213ZM183.172 30.0944C182.247 29.7909 181.475 29.6391 180.854 29.6391C180.233 29.6391 179.764 29.6736 179.447 29.7426C179.129 29.8254 178.847 29.9427 178.598 30.0944C178.033 30.4393 177.75 30.8946 177.75 31.4603C177.75 32.0259 177.936 32.4674 178.309 32.7847C178.667 33.1159 179.136 33.2814 179.716 33.2814C180.295 33.2814 180.764 33.1986 181.123 33.0331C181.482 32.8675 181.806 32.6399 182.096 32.3502C182.703 31.7569 183.061 31.005 183.172 30.0944ZM191.946 29.784C191.132 28.97 190.725 27.9422 190.725 26.7005C190.725 25.0311 191.353 23.6653 192.609 22.6029C193.795 21.5958 195.168 21.0922 196.727 21.0922C197.831 21.0922 198.838 21.3612 199.748 21.8993C199.983 20.7956 200.5 19.8988 201.3 19.209C202.073 18.533 202.963 18.1949 203.97 18.1949L203.515 21.5889C202.025 21.5889 201.204 22.1201 201.052 23.1824C201.549 23.9274 201.797 24.7345 201.797 25.6037C201.797 26.4729 201.625 27.2524 201.28 27.9422C200.935 28.632 200.479 29.2184 199.914 29.7012C198.714 30.6946 197.334 31.1913 195.775 31.1913C194.988 31.1913 194.243 31.0602 193.54 30.7981C192.767 31.1016 192.381 31.5914 192.381 32.2674C192.381 33.04 192.988 33.4263 194.202 33.4263H198.403C201.135 33.4263 202.501 34.4196 202.501 36.4063C202.501 38.3102 201.618 39.8968 199.852 41.1661C198.293 42.3112 196.527 42.8838 194.554 42.8838C192.512 42.8838 190.884 42.4354 189.67 41.5386C188.566 40.7246 188.014 39.6761 188.014 38.393C188.014 37.0134 188.628 36.0131 189.856 35.3923C190.215 35.2267 190.574 35.1164 190.932 35.0612C190.091 34.4127 189.67 33.6608 189.67 32.8054C189.67 31.9501 189.904 31.274 190.374 30.7774C190.843 30.2807 191.367 29.9496 191.946 29.784ZM193.871 35.9304C193.126 35.9304 192.491 36.1166 191.967 36.4891C191.429 36.8616 191.16 37.3721 191.16 38.0205C191.16 38.669 191.484 39.1656 192.133 39.5105C192.767 39.8555 193.664 40.0279 194.823 40.0279C195.927 40.0279 196.913 39.7589 197.782 39.2208C198.803 38.6276 199.314 37.8481 199.314 36.8823C199.314 36.5926 199.217 36.358 199.024 36.1787C198.831 36.0131 198.548 35.9304 198.175 35.9304H193.871ZM198.61 25.8106C198.61 24.3068 197.865 23.5549 196.375 23.5549C195.589 23.5549 194.975 23.8308 194.533 24.3827C194.106 24.9483 193.892 25.6106 193.892 26.3694C193.892 27.9284 194.616 28.7079 196.065 28.7079C196.92 28.7079 197.555 28.4182 197.969 27.8387C198.396 27.2593 198.61 26.5832 198.61 25.8106ZM205.853 35.5785L207.198 21.444H210.344L209.02 35.5785H205.853ZM207.198 16.9533C207.267 16.3324 207.495 15.8357 207.881 15.4632C208.254 15.0769 208.75 14.8838 209.371 14.8838C209.978 14.8838 210.434 15.0769 210.737 15.4632C211.041 15.8357 211.165 16.3393 211.11 16.974C211.068 17.5948 210.854 18.0846 210.468 18.4433C210.082 18.8158 209.578 19.002 208.957 19.002C208.364 19.002 207.909 18.8158 207.592 18.4433C207.288 18.0846 207.157 17.5879 207.198 16.9533ZM215.394 23.7204C215.945 22.934 216.642 22.2994 217.484 21.8165C218.325 21.3337 219.229 21.0922 220.195 21.0922C221.16 21.0922 221.947 21.244 222.554 21.5475C223.161 21.8648 223.671 22.2718 224.085 22.7685C224.872 23.748 225.265 24.9483 225.265 26.3694H222.016C221.947 25.7899 221.754 25.2932 221.436 24.8794C221.133 24.4793 220.671 24.2792 220.05 24.2792C218.932 24.2792 218.084 24.8863 217.504 26.1003C217.063 27.0247 216.842 28.0801 216.842 29.2666C216.842 30.4531 217.07 31.3361 217.525 31.9156C217.994 32.495 218.587 32.7847 219.305 32.7847C220.036 32.7847 220.595 32.5778 220.981 32.1639C221.367 31.75 221.602 31.205 221.685 30.529H224.872C224.706 32.1156 224.127 33.3918 223.133 34.3575C222.03 35.4337 220.643 35.9717 218.974 35.9717C217.428 35.9717 216.166 35.3923 215.187 34.2334C214.138 33.0055 213.614 31.4327 213.614 29.515C213.614 27.2799 214.207 25.3484 215.394 23.7204Z" fill="url(#paint1_linear_4_347)"/>
</g>
<defs>
<linearGradient id="paint0_linear_4_347" x1="29.0908" y1="0.941895" x2="-10.9655" y2="11.3714" gradientUnits="userSpaceOnUse">
<stop offset="0.421875" stop-color="#C2C2AD"/>
<stop offset="0.588542" stop-color="#81805F"/>
<stop offset="0.917708" stop-color="#81805F"/>
</linearGradient>
<linearGradient id="paint1_linear_4_347" x1="221.559" y1="14.8838" x2="198.949" y2="90.4231" gradientUnits="userSpaceOnUse">
<stop stop-color="#DFE2E1"/>
<stop offset="1" stop-color="#A9B1AF"/>
</linearGradient>
<clipPath id="clip0_4_347">
<rect width="224.778" height="55.8837" fill="white" transform="translate(0.487305 0.941895)"/>
</clipPath>
</defs>
</svg>
