<svg width="190" height="41" viewBox="0 0 190 41" fill="none" xmlns="http://www.w3.org/2000/svg">
<g clip-path="url(#clip0_12_778)">
<path d="M20.8171 38.9508L18.9744 36.0113L12.8762 26.4033L11.0335 23.4638C10.9897 23.3761 10.858 23.2883 10.7703 23.2883H10.6825C10.5948 23.2883 10.5071 23.3322 10.4632 23.3761L8.75216 24.4729C8.66442 24.5168 8.57667 24.6484 8.57667 24.7361C8.5328 24.8678 8.57667 24.9555 8.62054 25.0871L10.4632 28.0266L16.5176 37.5907L18.3602 40.5302C18.4041 40.6179 18.5357 40.7057 18.6235 40.7057H18.7112C18.7989 40.7057 18.8867 40.6618 18.9306 40.6179L20.6416 39.5211C20.9048 39.3895 20.9487 39.1263 20.8171 38.9508ZM10.6825 23.6832L12.3058 26.2717L10.5509 27.3685L8.92765 24.78L10.6825 23.6832ZM18.7112 40.267L17.0879 37.6785L18.7989 36.5817L20.4222 39.1702L18.7112 40.267ZM8.92765 12.6712L5.33012 6.96782L5.15463 6.61684L1.46935 0.825684L3.75071 7.27492L3.88233 7.6259L4.58429 9.64403L0.0654297 10.4337L8.92765 22.4548L5.1985 12.6712H8.92765Z" fill="url(#paint0_linear_12_778)"/>
<path d="M30.4142 10.3266H34.2989L37.3144 19.8166L42.1038 10.3266H45.882L44.3565 26.504H41.6071L42.7246 14.3355L37.7046 24.7656H35.9485L32.7911 13.9275L31.6204 26.504H28.8887L30.4142 10.3266ZM52.9774 19.4264C53.7106 19.4264 54.5975 19.5742 55.6381 19.8698L55.7623 18.7346C55.7741 18.6163 55.78 18.504 55.78 18.3976V18.1315C55.78 17.5047 55.644 17.0435 55.372 16.7479C55.1001 16.4404 54.6507 16.2867 54.0239 16.2867C53.3972 16.2867 52.8828 16.4404 52.4807 16.7479C52.0904 17.0554 51.8598 17.4752 51.7889 18.0073H48.8089C48.9626 16.6355 49.5066 15.6363 50.4408 15.0095C51.375 14.3946 52.5694 14.0871 54.0239 14.0871C57.0158 14.0871 58.5117 15.4352 58.5117 18.1315V18.4508C58.5117 18.569 58.5058 18.6932 58.494 18.8233L57.7667 26.504H55.4075C55.3839 26.232 55.372 25.9659 55.372 25.7058C55.372 25.4456 55.3602 25.1736 55.3366 24.8898C54.4733 26.1906 53.3499 26.841 51.9663 26.841C50.6418 26.841 49.6248 26.504 48.9153 25.8299C48.253 25.2032 47.9219 24.3813 47.9219 23.3643C47.9219 22.0398 48.4304 21.0347 49.4474 20.3488C50.3343 19.7338 51.511 19.4264 52.9774 19.4264ZM55.4607 21.8033C54.6684 21.5432 54.0062 21.4131 53.474 21.4131C52.9419 21.4131 52.5398 21.4426 52.2678 21.5018C51.9958 21.5727 51.7534 21.6732 51.5406 21.8033C51.0557 22.099 50.8133 22.4892 50.8133 22.9741C50.8133 23.4589 50.9729 23.8373 51.2922 24.1093C51.6115 24.3931 52.0195 24.535 52.5162 24.535C53.0128 24.535 53.409 24.4641 53.7046 24.3222C54.0121 24.1803 54.29 23.9851 54.5383 23.7368C55.0587 23.2283 55.3661 22.5838 55.4607 21.8033ZM66.6536 14.0871C68.0491 14.0871 69.0956 14.4301 69.7933 15.116C70.491 15.8018 70.7985 16.6651 70.7157 17.7058H68.1614C68.1614 17.3273 68.0195 17.0199 67.7357 16.7834C67.4519 16.5587 67.0261 16.4463 66.4585 16.4463C65.9027 16.4463 65.4593 16.5646 65.1281 16.8011C64.797 17.0376 64.6137 17.3214 64.5783 17.6525C64.5073 18.2202 64.8798 18.6341 65.6958 18.8942L68.2324 19.994C69.0247 20.3133 69.6278 20.7154 70.0417 21.2002C70.4556 21.6851 70.6329 22.2409 70.5738 22.8676C70.5147 23.5062 70.355 24.0502 70.0949 24.4995C69.8229 24.9607 69.4681 25.3628 69.0306 25.7058C68.0609 26.4626 66.8606 26.841 65.4297 26.841C63.987 26.841 62.8517 26.4922 62.0239 25.7944C61.1961 25.0849 60.8414 24.0857 60.9596 22.7967H63.4785C63.4312 23.3761 63.5849 23.8018 63.9397 24.0738C64.2944 24.334 64.7911 24.4641 65.4297 24.4641C66.0564 24.4641 66.5531 24.334 66.9197 24.0738C67.2745 23.8018 67.4755 23.4885 67.5228 23.1337C67.5583 22.7789 67.4814 22.5129 67.2922 22.3355C67.0912 22.1463 66.766 21.9689 66.3166 21.8033L64.0106 20.8454C62.3196 20.1477 61.5568 19.0361 61.7224 17.5106C61.817 16.47 62.3077 15.6422 63.1947 15.0273C64.1052 14.4005 65.2582 14.0871 66.6536 14.0871ZM79.3543 24.0738L79.5494 26.2024C78.5443 26.6282 77.7519 26.841 77.1725 26.841C76.593 26.841 76.0964 26.7701 75.6825 26.6282C75.2686 26.4744 74.9138 26.2497 74.6182 25.9541C73.9678 25.2919 73.7076 24.3458 73.8377 23.116L74.4585 16.4109H72.9685L73.1636 14.4064H74.6536L74.9552 11.249H77.6869L77.3853 14.4064H80.2944L80.0993 16.4109H77.1725L76.5694 23.0273C76.4748 23.9851 76.8473 24.4641 77.6869 24.4641C78.1244 24.4641 78.6803 24.334 79.3543 24.0738ZM91.3987 21.218H84.392C84.3802 21.3007 84.3743 21.3835 84.3743 21.4663C84.3743 21.5491 84.3743 21.6318 84.3743 21.7146C84.3743 22.5188 84.5516 23.1692 84.9064 23.6658C85.2612 24.1625 85.7342 24.4109 86.3255 24.4109C87.5435 24.4109 88.2826 23.9083 88.5428 22.9031H91.2922C91.0321 24.062 90.4408 25.0021 89.5184 25.7235C88.5842 26.4685 87.514 26.841 86.3077 26.841C84.9951 26.841 83.9131 26.3443 83.0616 25.351C82.1747 24.3458 81.7313 23.0095 81.7313 21.3421C81.7313 19.45 82.2397 17.7944 83.2567 16.3754C84.3329 14.8499 85.746 14.0871 87.4962 14.0871C88.868 14.0871 89.9205 14.5838 90.6536 15.5772C91.3277 16.4641 91.6647 17.623 91.6647 19.0539C91.6647 19.7279 91.576 20.4493 91.3987 21.218ZM87.2479 16.4995C86.5502 16.4995 85.9707 16.7597 85.5095 17.28C85.0483 17.8122 84.7409 18.4862 84.5871 19.3022H89.1459C89.1577 19.2194 89.1636 19.1367 89.1636 19.0539C89.1636 18.9711 89.1636 18.8292 89.1636 18.6282C89.1636 18.4271 89.1341 18.1906 89.0749 17.9186C89.0158 17.6466 88.9153 17.4042 88.7734 17.1913C88.4541 16.7301 87.9456 16.4995 87.2479 16.4995ZM101.847 14.3532L101.527 17.3865C101.196 17.3037 100.8 17.2623 100.339 17.2623C98.5886 17.2623 97.5893 18.5808 97.341 21.218L96.8443 26.504H94.1126L95.2479 14.3887H97.9796L97.749 16.7834C98.1511 15.8964 98.63 15.2401 99.1858 14.8144C99.7416 14.3887 100.327 14.1758 100.942 14.1758C101.238 14.1758 101.539 14.235 101.847 14.3532ZM110.627 10.0073C112.637 10.0073 114.169 10.7109 115.221 12.1182C116.321 13.5727 116.741 15.6658 116.481 18.3976C116.232 21.1529 115.41 23.2756 114.015 24.7656C112.726 26.1492 111.065 26.841 109.031 26.841C107.032 26.841 105.501 26.1315 104.436 24.7124C103.36 23.2579 102.952 21.1529 103.212 18.3976C103.461 15.654 104.277 13.5432 105.66 12.065C106.926 10.6932 108.581 10.0073 110.627 10.0073ZM113.643 18.433C113.832 16.6119 113.625 15.2046 113.022 14.2113C112.419 13.218 111.538 12.7213 110.379 12.7213C109.22 12.7213 108.244 13.2239 107.452 14.229C106.671 15.2224 106.192 16.6296 106.015 18.4508C105.838 20.2719 106.051 21.6732 106.654 22.6548C107.245 23.6245 108.126 24.1093 109.297 24.1093C110.456 24.1093 111.425 23.6185 112.206 22.637C112.986 21.6555 113.465 20.2542 113.643 18.433ZM126.432 9.54611L125.687 11.8698C125.273 11.7279 124.906 11.657 124.587 11.657C124.268 11.657 123.972 11.7575 123.7 11.9585C123.428 12.1714 123.263 12.538 123.204 13.0583L123.079 14.4064H125.066L124.871 16.4463H122.884L121.962 26.504H119.23L120.153 16.4463H118.574L118.769 14.4064H120.348L120.507 13.0406C120.626 11.7989 121.045 10.841 121.767 10.167C122.393 9.56385 123.198 9.2623 124.179 9.2623C124.889 9.2623 125.64 9.3569 126.432 9.54611ZM128.543 10.3266H132.445L135.461 19.8166L140.25 10.3266H144.028L142.503 26.504H139.753L140.871 14.3355L135.851 24.7656H134.095L130.937 13.9275L129.767 26.504H127.035L128.543 10.3266ZM151.124 19.4264C151.857 19.4264 152.744 19.5742 153.784 19.8698L153.909 18.7346C153.92 18.6163 153.926 18.504 153.926 18.3976V18.1315C153.926 17.5047 153.79 17.0435 153.518 16.7479C153.246 16.4404 152.797 16.2867 152.17 16.2867C151.544 16.2867 151.029 16.4404 150.627 16.7479C150.225 17.0554 149.994 17.4752 149.935 18.0073H146.955C147.097 16.6355 147.635 15.6363 148.569 15.0095C149.515 14.3946 150.716 14.0871 152.17 14.0871C155.162 14.0871 156.658 15.4352 156.658 18.1315V18.4508C156.658 18.569 156.652 18.6932 156.64 18.8233L155.913 26.504H153.554C153.518 26.232 153.501 25.9659 153.501 25.7058C153.501 25.4456 153.495 25.1736 153.483 24.8898C152.62 26.1906 151.496 26.841 150.113 26.841C148.788 26.841 147.765 26.504 147.044 25.8299C146.382 25.2032 146.051 24.3813 146.051 23.3643C146.051 22.0398 146.565 21.0347 147.594 20.3488C148.469 19.7338 149.646 19.4264 151.124 19.4264ZM153.607 21.8033C152.815 21.5432 152.153 21.4131 151.62 21.4131C151.088 21.4131 150.686 21.4426 150.414 21.5018C150.142 21.5727 149.9 21.6732 149.687 21.8033C149.202 22.099 148.96 22.4892 148.96 22.9741C148.96 23.4589 149.119 23.8373 149.439 24.1093C149.746 24.3931 150.148 24.535 150.645 24.535C151.141 24.535 151.544 24.4641 151.851 24.3222C152.158 24.1803 152.436 23.9851 152.685 23.7368C153.205 23.2283 153.512 22.5838 153.607 21.8033ZM161.128 21.5372C160.43 20.8395 160.082 19.9585 160.082 18.8942C160.082 17.4633 160.62 16.2926 161.696 15.382C162.713 14.5188 163.889 14.0871 165.226 14.0871C166.172 14.0871 167.035 14.3177 167.816 14.7789C168.017 13.8329 168.46 13.0642 169.146 12.4729C169.808 11.8935 170.571 11.6038 171.434 11.6038L171.044 14.5129C169.767 14.5129 169.063 14.9681 168.933 15.8787C169.359 16.5173 169.572 17.2091 169.572 17.9541C169.572 18.6991 169.424 19.3672 169.128 19.9585C168.833 20.5498 168.442 21.0524 167.957 21.4663C166.929 22.3177 165.746 22.7435 164.41 22.7435C163.736 22.7435 163.097 22.6311 162.494 22.4064C161.832 22.6666 161.501 23.0864 161.501 23.6658C161.501 24.3281 162.021 24.6592 163.062 24.6592H166.663C169.004 24.6592 170.175 25.5106 170.175 27.2135C170.175 28.8454 169.418 30.2054 167.904 31.2933C166.568 32.2749 165.054 32.7656 163.363 32.7656C161.613 32.7656 160.218 32.3813 159.177 31.6126C158.231 30.9149 157.758 30.0162 157.758 28.9164C157.758 27.7338 158.284 26.8765 159.337 26.3443C159.644 26.2024 159.951 26.1078 160.259 26.0605C159.538 25.5047 159.177 24.8602 159.177 24.127C159.177 23.3939 159.378 22.8144 159.78 22.3887C160.182 21.963 160.631 21.6791 161.128 21.5372ZM162.778 26.8055C162.139 26.8055 161.595 26.9652 161.146 27.2845C160.685 27.6038 160.454 28.0413 160.454 28.5971C160.454 29.1529 160.732 29.5786 161.288 29.8743C161.832 30.1699 162.6 30.3177 163.594 30.3177C164.54 30.3177 165.385 30.0871 166.13 29.6259C167.005 29.1174 167.443 28.4493 167.443 27.6215C167.443 27.3732 167.36 27.1721 167.195 27.0184C167.029 26.8765 166.787 26.8055 166.467 26.8055H162.778ZM166.84 18.1315C166.84 16.8425 166.201 16.198 164.924 16.198C164.25 16.198 163.724 16.4345 163.345 16.9075C162.979 17.3924 162.796 17.96 162.796 18.6104C162.796 19.9467 163.416 20.6148 164.658 20.6148C165.391 20.6148 165.935 20.3665 166.29 19.8698C166.657 19.3732 166.84 18.7937 166.84 18.1315ZM173.048 26.504L174.201 14.3887H176.898L175.762 26.504H173.048ZM174.201 10.5395C174.26 10.0073 174.456 9.58159 174.787 9.2623C175.106 8.93118 175.532 8.76562 176.064 8.76562C176.584 8.76562 176.974 8.93118 177.235 9.2623C177.495 9.58159 177.601 10.0132 177.554 10.5572C177.518 11.0893 177.335 11.5092 177.004 11.8166C176.673 12.1359 176.241 12.2956 175.709 12.2956C175.201 12.2956 174.81 12.1359 174.538 11.8166C174.278 11.5092 174.166 11.0834 174.201 10.5395ZM181.226 16.3399C181.699 15.6658 182.296 15.1219 183.017 14.708C183.739 14.2941 184.513 14.0871 185.341 14.0871C186.169 14.0871 186.843 14.2172 187.363 14.4774C187.883 14.7494 188.321 15.0982 188.676 15.5239C189.35 16.3636 189.687 17.3924 189.687 18.6104H186.902C186.843 18.1137 186.677 17.688 186.405 17.3333C186.145 16.9903 185.749 16.8188 185.217 16.8188C184.259 16.8188 183.532 17.3392 183.035 18.3798C182.657 19.1721 182.467 20.0768 182.467 21.0938C182.467 22.1108 182.663 22.8676 183.053 23.3643C183.455 23.861 183.963 24.1093 184.578 24.1093C185.205 24.1093 185.684 23.9319 186.015 23.5772C186.346 23.2224 186.547 22.7553 186.618 22.1758H189.35C189.208 23.5358 188.711 24.6296 187.86 25.4574C186.914 26.3798 185.725 26.841 184.294 26.841C182.97 26.841 181.888 26.3443 181.048 25.351C180.15 24.2985 179.7 22.9504 179.7 21.3066C179.7 19.3909 180.209 17.7353 181.226 16.3399Z" fill="url(#paint1_linear_12_778)"/>
</g>
<defs>
<linearGradient id="paint0_linear_12_778" x1="20.4776" y1="0.825684" x2="-8.10757" y2="8.26846" gradientUnits="userSpaceOnUse">
<stop offset="0.421875" stop-color="#C2C2AD"/>
<stop offset="0.588542" stop-color="#81805F"/>
<stop offset="0.917708" stop-color="#81805F"/>
</linearGradient>
<linearGradient id="paint1_linear_12_778" x1="186.511" y1="8.76563" x2="167.13" y2="73.5136" gradientUnits="userSpaceOnUse">
<stop stop-color="#DFE2E1"/>
<stop offset="1" stop-color="#A9B1AF"/>
</linearGradient>
<clipPath id="clip0_12_778">
<rect width="189.622" height="39.88" fill="white" transform="translate(0.0654297 0.825684)"/>
</clipPath>
</defs>
</svg>
