<svg width="161" height="160" viewBox="0 0 161 160" fill="none" xmlns="http://www.w3.org/2000/svg">
<path d="M80.5 73.3333C84.1667 73.3333 87.3067 72.0267 89.92 69.4133C92.5333 66.8 93.8378 63.6622 93.8333 60C93.8333 56.3333 92.5267 53.1933 89.9133 50.58C87.3 47.9667 84.1622 46.6622 80.5 46.6667C76.8333 46.6667 73.6933 47.9733 71.08 50.5867C68.4667 53.2 67.1622 56.3378 67.1667 60C67.1667 63.6667 68.4733 66.8067 71.0867 69.42C73.7 72.0333 76.8378 73.3378 80.5 73.3333ZM47.1667 140V126.667H73.8333V106C68.3889 104.778 63.5267 102.471 59.2467 99.08C54.9667 95.6889 51.8289 91.44 49.8333 86.3333C41.5 85.3333 34.5267 81.6956 28.9133 75.42C23.3 69.1444 20.4956 61.7822 20.5 53.3333V46.6667C20.5 43 21.8067 39.86 24.42 37.2467C27.0333 34.6333 30.1711 33.3289 33.8333 33.3333H47.1667V20H113.833V33.3333H127.167C130.833 33.3333 133.973 34.64 136.587 37.2533C139.2 39.8667 140.504 43.0044 140.5 46.6667V53.3333C140.5 61.7778 137.693 69.14 132.08 75.42C126.467 81.7 119.496 85.3378 111.167 86.3333C109.167 91.4444 106.027 95.6956 101.747 99.0867C97.4667 102.478 92.6067 104.782 87.1667 106V126.667H113.833V140H47.1667ZM47.1667 72V46.6667H33.8333V53.3333C33.8333 57.5556 35.0556 61.3622 37.5 64.7533C39.9445 68.1444 43.1667 70.56 47.1667 72ZM113.833 72C117.833 70.5556 121.056 68.1378 123.5 64.7467C125.944 61.3556 127.167 57.5511 127.167 53.3333V46.6667H113.833V72Z" fill="url(#paint0_linear_1227_3973)"/>
<defs>
<linearGradient id="paint0_linear_1227_3973" x1="138.13" y1="20" x2="-2.73904" y2="90.2441" gradientUnits="userSpaceOnUse">
<stop offset="0.421875" stop-color="#C2C2AD"/>
<stop offset="0.588542" stop-color="#81805F"/>
<stop offset="0.917708" stop-color="#81805F"/>
</linearGradient>
</defs>
</svg>
