<svg width="161" height="160" viewBox="0 0 161 160" fill="none" xmlns="http://www.w3.org/2000/svg">
<path d="M50.5004 37.3334L33.8337 46.6667L43.1671 30L33.8337 13.3334L50.5004 22.6667L67.1671 13.3334L57.8337 30L67.1671 46.6667L50.5004 37.3334ZM130.5 102.667L147.167 93.3334L137.834 110L147.167 126.667L130.5 117.333L113.834 126.667L123.167 110L113.834 93.3334L130.5 102.667ZM147.167 13.3334L137.834 30L147.167 46.6667L130.5 37.3334L113.834 46.6667L123.167 30L113.834 13.3334L130.5 22.6667L147.167 13.3334ZM89.4337 85.2L105.7 68.9334L91.5671 54.8L75.3004 71.0667L89.4337 85.2ZM96.3004 48.6L111.9 64.2C114.5 66.6667 114.5 71 111.9 73.6L34.1004 151.4C31.5004 154 27.1671 154 24.7004 151.4L9.10039 135.8C6.50039 133.333 6.50039 129 9.10039 126.4L86.9004 48.6C89.5004 46 93.8337 46 96.3004 48.6Z" fill="url(#paint0_linear_1227_4123)"/>
<defs>
<linearGradient id="paint0_linear_1227_4123" x1="144.401" y1="13.3334" x2="-19.965" y2="95.2945" gradientUnits="userSpaceOnUse">
<stop offset="0.421875" stop-color="#C2C2AD"/>
<stop offset="0.588542" stop-color="#81805F"/>
<stop offset="0.917708" stop-color="#81805F"/>
</linearGradient>
</defs>
</svg>
