<svg width="161" height="160" viewBox="0 0 161 160" fill="none" xmlns="http://www.w3.org/2000/svg">
<path d="M140.5 146.667H20.5V133.333H140.5V146.667ZM127.167 126.667H33.8333L74.5 17.3333C75.8333 14.6666 77.8333 13.3333 80.5 13.3333L120.5 33.3333H93.1667L127.167 126.667ZM67.1667 49.9999L74.1 53.1332L77.1667 59.9999L80.3 53.1332L87.1667 49.9999L80.3 46.8666L77.1667 39.9999L74.1 46.8666L67.1667 49.9999ZM87.1667 99.9999L73.4333 93.7999L67.1667 79.9999L60.9667 93.7999L47.1667 99.9999L60.9667 106.2L67.1667 120L73.4333 106.2L87.1667 99.9999ZM93.6333 79.7999L100.5 76.6666L93.6333 73.5332L90.5 66.6666L87.4333 73.5332L80.5 76.6666L87.4333 79.7999L90.5 86.6666L93.6333 79.7999ZM106.967 106.467L113.833 103.333L106.967 100.2L103.833 93.3333L100.767 100.2L93.8333 103.333L100.767 106.467L103.833 113.333L106.967 106.467Z" fill="url(#paint0_linear_1227_4044)"/>
<defs>
<linearGradient id="paint0_linear_1227_4044" x1="138.13" y1="13.3333" x2="-8.27851" y2="79.0389" gradientUnits="userSpaceOnUse">
<stop offset="0.421875" stop-color="#C2C2AD"/>
<stop offset="0.588542" stop-color="#81805F"/>
<stop offset="0.917708" stop-color="#81805F"/>
</linearGradient>
</defs>
</svg>
