<svg width="161" height="160" viewBox="0 0 161 160" fill="none" xmlns="http://www.w3.org/2000/svg">
<path d="M40.4997 80C40.4997 83.5363 39.0949 86.9276 36.5944 89.4281C34.0939 91.9286 30.7026 93.3334 27.1663 93.3334C23.6301 93.3334 20.2387 91.9286 17.7383 89.4281C15.2378 86.9276 13.833 83.5363 13.833 80C13.833 76.4638 15.2378 73.0724 17.7383 70.572C20.2387 68.0715 23.6301 66.6667 27.1663 66.6667C30.7026 66.6667 34.0939 68.0715 36.5944 70.572C39.0949 73.0724 40.4997 76.4638 40.4997 80ZM40.4997 80H60.4997C62.2678 80 63.9635 80.7024 65.2137 81.9527C66.464 83.2029 67.1663 84.8986 67.1663 86.6667V126.667C67.1663 128.435 66.464 130.131 65.2137 131.381C63.9635 132.631 62.2678 133.333 60.4997 133.333H40.4997M40.4997 133.333C40.4997 136.87 39.0949 140.261 36.5944 142.761C34.0939 145.262 30.7026 146.667 27.1663 146.667C23.6301 146.667 20.2387 145.262 17.7383 142.761C15.2378 140.261 13.833 136.87 13.833 133.333C13.833 129.797 15.2378 126.406 17.7383 123.905C20.2387 121.405 23.6301 120 27.1663 120C30.7026 120 34.0939 121.405 36.5944 123.905C39.0949 126.406 40.4997 129.797 40.4997 133.333ZM13.833 26.6667C13.833 30.2029 15.2378 33.5943 17.7383 36.0948C20.2387 38.5953 23.6301 40 27.1663 40C30.7026 40 34.0939 38.5953 36.5944 36.0948C39.0949 33.5943 40.4997 30.2029 40.4997 26.6667C40.4997 23.1305 39.0949 19.7391 36.5944 17.2386C34.0939 14.7381 30.7026 13.3334 27.1663 13.3334C23.6301 13.3334 20.2387 14.7381 17.7383 17.2386C15.2378 19.7391 13.833 23.1305 13.833 26.6667ZM120.5 66.6667C120.5 70.2029 121.904 73.5943 124.405 76.0948C126.905 78.5953 130.297 80 133.833 80C137.369 80 140.761 78.5953 143.261 76.0948C145.762 73.5943 147.166 70.2029 147.166 66.6667C147.166 63.1305 145.762 59.7391 143.261 57.2386C140.761 54.7381 137.369 53.3334 133.833 53.3334C130.297 53.3334 126.905 54.7381 124.405 57.2386C121.904 59.7391 120.5 63.1305 120.5 66.6667Z" stroke="url(#paint0_linear_1227_4100)" stroke-width="13.3333" stroke-linecap="round" stroke-linejoin="round"/>
<path d="M40.5 26.6667H87.1667C88.9348 26.6667 90.6305 27.3691 91.8807 28.6193C93.131 29.8696 93.8333 31.5652 93.8333 33.3334V100C93.8333 101.768 93.131 103.464 91.8807 104.714C90.6305 105.964 88.9348 106.667 87.1667 106.667H73.8333M93.8333 66.6667H120.5" stroke="url(#paint1_linear_1227_4100)" stroke-width="13.3333" stroke-linecap="round" stroke-linejoin="round"/>
<defs>
<linearGradient id="paint0_linear_1227_4100" x1="144.533" y1="13.3334" x2="-11.9881" y2="91.3823" gradientUnits="userSpaceOnUse">
<stop offset="0.421875" stop-color="#C2C2AD"/>
<stop offset="0.588542" stop-color="#81805F"/>
<stop offset="0.917708" stop-color="#81805F"/>
</linearGradient>
<linearGradient id="paint1_linear_1227_4100" x1="118.92" y1="26.6667" x2="25.0073" y2="73.4961" gradientUnits="userSpaceOnUse">
<stop offset="0.421875" stop-color="#C2C2AD"/>
<stop offset="0.588542" stop-color="#81805F"/>
<stop offset="0.917708" stop-color="#81805F"/>
</linearGradient>
</defs>
</svg>
